<svg width="144" height="68" viewBox="0 0 144 68" fill="none" xmlns="http://www.w3.org/2000/svg">
<path d="M2.4 68V9.72799H0.96L1.92 0.799995H16.896L21.504 36.992L26.208 0.799995H40.896V68H31.776V15.776L24.672 58.4H18.432L11.52 16.928V68H2.4ZM54.9285 68C51.9845 68 49.6165 67.168 47.8245 65.504C46.0965 63.776 45.2325 61.632 45.2325 59.072V28.928C45.2325 26.304 46.0965 24.16 47.8245 22.496C49.6165 20.832 51.9845 20 54.9285 20H55.3125C57.0405 20 58.5765 20.416 59.9205 21.248V20H69.0405V59.072H70.3845L71.3445 68H59.9205V64.256L57.5205 68H54.9285ZM54.8325 28.928C54.5125 28.928 54.3525 29.088 54.3525 29.408V58.592C54.3525 58.912 54.5125 59.072 54.8325 59.072H59.9205V28.928H54.8325ZM103.639 9.72799V0.799995H130.039V9.72799H121.399V68H112.279V9.72799H103.639ZM142.56 7.232L143.52 16.16H134.4V7.232H142.56ZM143.52 20V68H134.4V28.928H132.96L133.92 20H143.52Z" fill="white"/>
<path d="M74.2013 41.312C74.2013 38.624 75.0333 36.48 76.6973 34.88C78.3613 33.216 80.5373 32.384 83.2253 32.384H86.2973C86.6173 32.384 86.7773 32.224 86.7773 31.904V23.648C86.7773 23.328 86.6173 23.168 86.2973 23.168H74.2013V10.4H90.8093C93.4973 10.4 95.6733 11.232 97.3373 12.896C99.0013 14.496 99.8333 16.64 99.8333 19.328V36.224C99.8333 38.912 99.0013 41.088 97.3373 42.752C95.6733 44.352 93.4973 45.152 90.8093 45.152H87.7373C87.4173 45.152 87.2573 45.312 87.2573 45.632V55.232H99.8333V68H74.2013V41.312Z" fill="#4781FF"/>
</svg>
